# xmcd
#
# Track frame offsets:
#	150
#	17476
#	33379
#	51801
#	67993
#	87114
#	105662
#	124810
#	142726
#	163455
#	179339
#	194281
#	207891
#	222068
#	240280
#
# Disc length: 3389 seconds
#
# Revision: 1
# Processed by: cddbd v1.5.2PL0 Copyright (c) Steve Scherf et al.
# Submitted via: audiograbber 1.83.01
#
DISCID=c50d3b0f
DTITLE=All Star Karaoke - Mixed Country Vol 11 Disc 1
DYEAR=2008
DGENRE=Country
TTITLE0=Big and Rich - Between Raising Hell and Amazing Grace
TTITLE1=Billy Currington - Good Directions
TTITLE2=Billy Currington - Tangled Up
TTITLE3=Blake Shelton - The More I Drink
TTITLE4=Brad Paisley - Online
TTITLE5=Brad Paisley - Ticks
TTITLE6=Brad Paisley and Carrie Underwood - Oh, Love
TTITLE7=Carrie Underwood - So Small
TTITLE8=Carrie Underwood - Wasted
TTITLE9=Clay Walker - Fall
TTITLE10=Dierks Bentley - Free And Easy (Down The Road I Go)
TTITLE11=George Strait - It Just Comes Naturally
TTITLE12=Jack Ingram - Measure Of A Man
TTITLE13=Jake Owens - Startin' With Me
TTITLE14=Joe Nichols - Another Side Of You
EXTD=
EXTT0=
EXTT1=
EXTT2=
EXTT3=
EXTT4=
EXTT5=
EXTT6=
EXTT7=
EXTT8=
EXTT9=
EXTT10=
EXTT11=
EXTT12=
EXTT13=
EXTT14=
PLAYORDER=
